<svg xmlns="http://www.w3.org/2000/svg" xml:space="preserve" width="847.159" height="743.623" viewBox="0 0 847.159 743.623"><path d="M338.859 594.5c7.512 0 15.028-2.867 20.758-8.598a29.4 29.4 0 0 0 4.707-6.152l15.246-26.157h.071L672.742 45.554c.055-.097.098-.195.153-.293a29.4 29.4 0 0 0 3.425-7.91c4.196-15.656-5.097-31.754-20.758-35.949a29.2 29.2 0 0 0-7.738-1H29.758C13.543.402.402 13.543.402 29.758a29.2 29.2 0 0 0 3.879 14.578q.028.046.051.097l304.367 528.41c3.863 6.665 5.653 9.305 9.406 13.059a29.26 29.26 0 0 0 20.754 8.598" style="fill:#fff;fill-opacity:1;fill-rule:nonzero;stroke:none" transform="matrix(1.25 0 0 -1.25 0 743.623)"/><path d="M338.859 587.144c7.125.051 14.95-3.59 18.782-10.406L666.934 40.847c1.785-3.648 2.535-6.82 2.558-10.449 0-6.496-2.875-12.66-7.847-16.84-4.383-3.394-8.536-5.16-14.122-5.16H29.617c-3.769-.035-7.547.871-10.976 3.133A21.55 21.55 0 0 0 8.23 29.957c.184 3.894 1.145 8 2.879 10.89l309.114 535.981q.041.07.089.14t.094.145a20 20 0 0 0 4.039 4.633 22 22 0 0 0 12.825 5.316c.531.047 1.062.078 1.589.082M647.523 8.398h1.524-1.555zM339.18 480.933 103.477 72.398h471.738z" style="fill:#c1121c;fill-opacity:1;fill-rule:nonzero;stroke:none" transform="matrix(1.25 0 0 -1.25 0 743.623)"/><path d="M338.859 594.898c7.618 0 15.231-2.906 21.039-8.715a29.7 29.7 0 0 0 4.774-6.234l15.129-25.957h.07L673.086 45.754c.066-.118.113-.219.16-.301a29.8 29.8 0 0 0 3.461-7.996c4.25-15.871-5.172-32.188-21.039-36.442A30 30 0 0 0 647.824 0H29.758C13.328 0 0 13.328 0 29.758a29.6 29.6 0 0 0 3.934 14.773q.016.028.05.098l304.364 528.414c3.871 6.668 5.695 9.363 9.468 13.14 5.809 5.809 13.426 8.715 21.039 8.715zm0-.398a29.26 29.26 0 0 1-20.754-8.598c-3.753-3.754-5.543-6.394-9.406-13.059L4.336 44.433c-.02-.035-.035-.066-.055-.097A29.2 29.2 0 0 1 .402 29.758C.402 13.543 13.543.402 29.758.402h618.066a29.2 29.2 0 0 1 7.738 1c15.661 4.195 24.954 20.293 20.758 35.949a29.2 29.2 0 0 1-3.425 7.91c-.055.098-.098.196-.153.293L379.641 553.593h-.071l-15.246 26.157a29.4 29.4 0 0 1-4.707 6.152c-5.73 5.731-13.242 8.598-20.758 8.598" style="fill:#000;fill-opacity:1;fill-rule:nonzero;stroke:none" transform="matrix(1.25 0 0 -1.25 0 743.623)"/><path d="M290.406 368.938 278.531 391v11.281H267V425h11.531v85.406H267.25v22.719h11.281v10.313h22.656v-10.313h20.938v10.313h22.656v-10.313h19.875v10.313h22.656v-10.313h21.344v10.313h22.625v-10.313h20.063v10.313h22.625v-10.313h10.437v-22.719H473.97V425h10.187v-22.719H473.97v-11l-10.75-22.344L451.344 391v11.281H431.28v-11l-10.75-22.344L408.656 391v11.281h-21.344v-11l-10.78-22.344L364.655 391v11.281H344.78v-11L334 368.937 322.125 391v11.281h-20.937v-11zM301.187 425h20.938v85.406h-20.937zm43.594 0h19.875v85.406h-19.875zm42.531 0h21.344v85.406h-21.344zm43.97 0h20.062v85.406H431.28z" style="fill:#000;fill-opacity:1;fill-rule:evenodd;stroke:none;stroke-width:1px;stroke-linecap:butt;stroke-linejoin:miter;stroke-opacity:1" transform="matrix(1.12085 0 0 1.1209 2.47 -4.543)"/></svg>