<svg xmlns="http://www.w3.org/2000/svg" xml:space="preserve" width="847.159" height="1758.123" viewBox="0 0 847.159 1758.123"><path d="M338.859 1406.1c7.512 0 15.028-2.867 20.758-8.597a29.3 29.3 0 0 0 4.707-6.153l15.246-26.156h.071l293.101-508.039c.055-.098.098-.195.153-.293a29.4 29.4 0 0 0 3.425-7.91c4.196-15.656-5.097-31.754-20.758-35.949a29.2 29.2 0 0 0-7.738-1H29.758c-16.215 0-29.356 13.14-29.356 29.355a29.2 29.2 0 0 0 3.879 14.578q.028.047.051.098l304.367 528.41c3.863 6.664 5.653 9.305 9.406 13.059a29.26 29.26 0 0 0 20.754 8.597" style="fill:#fff;fill-opacity:1;fill-rule:nonzero;stroke:none" transform="matrix(1.25 0 0 -1.25 0 1758.123)"/><path d="M338.859 1398.745c7.125.051 14.95-3.59 18.782-10.406l309.293-535.891c1.785-3.648 2.535-6.82 2.558-10.449 0-6.496-2.875-12.66-7.847-16.84-4.383-3.395-8.536-5.16-14.122-5.16H29.617c-3.769-.035-7.547.871-10.976 3.133A21.55 21.55 0 0 0 8.23 841.557c.184 3.895 1.145 8 2.879 10.891l309.114 535.98q.042.07.089.141.048.07.094.145a20 20 0 0 0 4.039 4.632 22 22 0 0 0 12.825 5.317c.531.047 1.062.078 1.589.082m308.664-578.746h1.524-1.555zM339.18 1292.534 103.477 883.999h471.738z" style="fill:#c1121c;fill-opacity:1;fill-rule:nonzero;stroke:none" transform="matrix(1.25 0 0 -1.25 0 1758.123)"/><path d="M338.859 1406.499c7.618 0 15.231-2.906 21.039-8.715a29.7 29.7 0 0 0 4.774-6.234l15.129-25.957h.07l293.215-508.239c.066-.117.113-.219.16-.301a29.7 29.7 0 0 0 3.461-7.996c4.25-15.871-5.172-32.187-21.039-36.441a30 30 0 0 0-7.844-1.016H29.758C13.328 811.6 0 824.928 0 841.358a29.63 29.63 0 0 0 3.934 14.774q.016.028.05.097l304.364 528.414c3.871 6.668 5.695 9.364 9.468 13.141 5.809 5.809 13.426 8.715 21.039 8.715zm0-.399a29.26 29.26 0 0 1-20.754-8.597c-3.753-3.754-5.543-6.395-9.406-13.059L4.336 856.034c-.02-.035-.035-.066-.055-.098a29.2 29.2 0 0 1-3.879-14.578c0-16.215 13.141-29.355 29.356-29.355h618.066a29.2 29.2 0 0 1 7.738 1c15.661 4.195 24.954 20.293 20.758 35.949a29.2 29.2 0 0 1-3.425 7.91c-.055.098-.098.195-.153.293l-293.101 508.039h-.071l-15.246 26.156a29.3 29.3 0 0 1-4.707 6.153c-5.73 5.73-13.242 8.597-20.758 8.597" style="fill:#000;fill-opacity:1;fill-rule:nonzero;stroke:none" transform="matrix(1.25 0 0 -1.25 0 1758.123)"/><path d="M262.961 932.768c-17.906 0-32.434 14.547-32.434 32.45v.386l.629 53.004a42.4 42.4 0 0 0 .817 7.766l3.312 16.996a42 42 0 0 0 2.328 7.828l15.75 39.172a10.8 10.8 0 0 0 10.028 6.777h47.398a29.69 29.69 0 0 1-23.113 21.617h-14.281a3.26 3.26 0 0 0-3.254 3.27c0 1.769 1.449 3.234 3.254 3.234h86.503c1.786 0 3.25-1.465 3.25-3.234 0-1.805-1.464-3.27-3.25-3.27h-14.3c-11.219-2.156-20.2-10.57-23.114-21.617h26.598a27 27 0 0 0 24.543-15.715l5.133-11.097c23.652-51.278 72.297-86.578 128.387-93.16l.816-.09a3.8 3.8 0 0 0 3.344-3.762v-35.148c0-2.989-2.438-5.407-5.41-5.407zm-32.836-32.453v16.227h21.633v10.832h32.437v-10.832h48.66v10.832h178.45v-10.832c-58.063 0-110.59-6.364-133.813-16.227" style="fill:#000;fill-opacity:1;fill-rule:nonzero;stroke:none" transform="matrix(1.25 0 0 -1.25 0 1758.123)"/><path d="M303.484 1118.764a36.14 36.14 0 0 0 13.161-18.457 36.13 36.13 0 0 0 13.16 18.457zm193.75-145.902a179 179 0 0 1 8.661-1.125v-19.309c-2.895.2-5.778.45-8.661.711zm-16.222 3.234a184 184 0 0 1 10.832-2.312v-20.063c-3.621.418-7.227.911-10.832 1.465zm-19.465 5.903a190 190 0 0 1 12.976-4.207v-21.528a336 336 0 0 0-12.976 2.621zm-22.711 10.047c4.93-2.59 9.984-4.961 15.148-7.106v-24.238a278 278 0 0 0-15.148 4.332zm-25.949 16.64a183 183 0 0 1 17.304-11.773v-28.985a277 277 0 0 0-17.304 6.813zm-29.215 28.535a173.6 173.6 0 0 1 19.476-20.461v-37.535a262 262 0 0 0-17.011 9.106zm-126.75 42.977a6.47 6.47 0 0 0 5.976 3.977h83.7a6.45 6.45 0 0 0 5.98-3.977l12.543-30.277c1.387-3.297-.168-7.106-3.469-8.493a6.4 6.4 0 0 0-2.511-.523H250.355a6.487 6.487 0 0 0-6.484 6.488c0 .879.168 1.727.508 2.528zm97.582-93.359c0-5.965-4.852-10.805-10.832-10.805-5.965 0-10.801 4.84-10.801 10.805 0 5.976 4.836 10.816 10.801 10.816 5.98 0 10.832-4.84 10.832-10.816m-86.52 0c0-5.965-4.855-10.805-10.816-10.805-5.98 0-10.816 4.84-10.816 10.805a10.81 10.81 0 0 0 10.816 10.816c5.961 0 10.816-4.84 10.816-10.816M250.867.389c-17.668 0-32.015 14.317-32.015 32.004v735.992c0 17.692 14.347 32.004 32.015 32.004h176.004c17.668 0 32.004-14.312 32.004-32.004V32.393c0-17.687-14.336-32.004-32.004-32.004" style="fill:#fff;fill-opacity:1;fill-rule:nonzero;stroke:none" transform="matrix(1.25 0 0 -1.25 0 1758.123)"/><path d="M250.867 800.803c-17.863 0-32.402-14.535-32.402-32.418V32.393c0-17.863 14.539-32.394 32.402-32.394h176.004c17.863 0 32.391 14.531 32.391 32.394v735.992c0 17.883-14.528 32.418-32.391 32.418zm0-.414h176.004c17.668 0 32.004-14.312 32.004-32.004V32.393c0-17.687-14.336-32.004-32.004-32.004H250.867c-17.668 0-32.015 14.317-32.015 32.004v735.992c0 17.692 14.347 32.004 32.015 32.004" style="fill:#000;fill-opacity:1;fill-rule:nonzero;stroke:none" transform="matrix(1.25 0 0 -1.25 0 1758.123)"/><path d="M438.879 32.393c0-6.621-5.375-12-12.008-12H250.867c-6.633 0-11.992 5.379-11.992 12v735.992c0 6.637 5.359 12.016 11.992 12.016h176.004c6.633 0 12.008-5.379 12.008-12.016zm-12.008 760.008H250.867c-13.246 0-24.004-10.75-24.004-24.016V32.393c0-13.254 10.758-23.992 24.004-23.992h176.004c13.254 0 23.992 10.738 23.992 23.992v735.992c0 13.266-10.738 24.016-23.992 24.016" style="fill:#000;fill-opacity:1;fill-rule:nonzero;stroke:none" transform="matrix(1.25 0 0 -1.25 0 1758.123)"/><path d="M238.875 400.917v84.008l200.004 115.472v-84.004zm0-175.996v84.004l200.004 115.457v-83.989zm0-176v84l200.004 115.48v-84.012" style="fill:#c1121c;fill-opacity:1;fill-rule:nonzero;stroke:none" transform="matrix(1.25 0 0 -1.25 0 1758.123)"/></svg>