<svg xmlns="http://www.w3.org/2000/svg" xml:space="preserve" width="601.002" height="601.002" viewBox="0 0 601.002 601.002"><path d="M480.402 240.403c0-132.551-107.453-240-240-240-132.55 0-240 107.449-240 240 0 132.547 107.45 240 240 240 132.547 0 240-107.453 240-240" style="fill:#fff;fill-opacity:1;fill-rule:nonzero;stroke:none" transform="matrix(1.25 0 0 -1.25 0 601.002)"/><path d="M95.852 303.809q-.323-.002-.645-.027l-.191-.012q-.246-.024-.485-.054l-.172-.024c-.031-.004-.058-.012-.089-.015a10 10 0 0 1-.446-.082 14 14 0 0 1-.383-.09l-.129-.035a9.89 9.89 0 0 1-6.546-5.618l-15.664-36.019a36 36 0 0 0-4.18-7.164l-2.371-3.172a11.84 11.84 0 0 1-2.387-7.137v-25.75c0-5.48 4.445-9.91 9.91-9.91H218.41a9.8 9.8 0 0 1 2.258.199l.062.012q.194.039.387.09l.149.039q.134.036.269.078.14.04.274.086c.05.016.105.031.156.051.109.039.223.082.332.125l.094.035q.197.081.39.168l.012.004.004.004a9.9 9.9 0 0 1 5.785 8.437q.019.289.02.582v25.75c0 2.582-.825 5.078-2.383 7.137l-2.449 3.258a35 35 0 0 0-2.168 3.281q-.182.312-.356.629c-.047.078-.09.16-.137.242-.129.234-.254.477-.379.715-.046.094-.097.183-.144.277-.063.125-.121.25-.184.375a35 35 0 0 0-.726 1.559l-1.653 3.801-.257.589L204 297.852a9.89 9.89 0 0 1-9.074 5.953H95.852zm2.398-9.91h94.27a3.96 3.96 0 0 0 3.48-2.074 1 1 0 0 1 .043-.086 4 4 0 0 0 .109-.226l9.258-21.293.012.011 4.359-10.008H81l2.484 5.692-.031-.031 11.164 25.629a3.95 3.95 0 0 0 3.633 2.386m-26.176-89.156v-21.789c0-.414.043-.813.121-1.199.555-2.711 2.95-4.758 5.821-4.758H89.91c3.281 0 5.942 2.672 5.942 5.957v21.789zm122.84 0v-2.234l.012.015v-16.34l-.012-.011v-3.219a5.97 5.97 0 0 1 3.582-5.469l.004.004a5.9 5.9 0 0 1 2.355-.492h11.895c.672 0 1.32.121 1.922.328a5.5 5.5 0 0 1 1.211.578l.023.012a5.94 5.94 0 0 1 1.86 1.855l.035.063q.152.245.281.508l.043.089q.119.251.215.52l.027.066-.004-.003c.207.609.328 1.257.328 1.937v21.793zm90.977 99.066q-.322-.002-.645-.027l-.191-.012q-.245-.024-.485-.054l-.172-.024c-.031-.004-.058-.012-.089-.015a10 10 0 0 1-.45-.082 17 17 0 0 1-.511-.125 9.89 9.89 0 0 1-6.543-5.618l-15.664-36.019a35.7 35.7 0 0 0-4.184-7.164l-2.371-3.172a11.86 11.86 0 0 1-2.383-7.137v-25.75c0-5.48 4.445-9.91 9.91-9.91h146.336c.77-.02 1.528.047 2.258.199l.063.012q.192.039.386.09l.149.039q.134.036.269.078c.09.027.184.055.274.086.05.016.105.031.156.051q.164.06.328.125l.098.035q.195.081.39.168l.012.004.004.004a9.9 9.9 0 0 1 5.785 8.437q.019.289.02.582v25.75a11.77 11.77 0 0 1-2.387 7.137l-2.445 3.258a35 35 0 0 0-2.524 3.91c-.047.078-.09.16-.137.242-.128.234-.253.477-.378.715-.047.094-.098.183-.145.277q-.095.188-.184.375a36 36 0 0 0-.726 1.559l-1.653 3.801-.257.589-13.766 31.629a9.89 9.89 0 0 1-9.074 5.953h-99.074zm2.394-9.91h94.274a3.96 3.96 0 0 0 3.476-2.074c.016-.027.031-.059.047-.086q.058-.11.106-.226l9.261-21.293.012.011 4.355-10.008H271.039l2.481 5.692-.028-.031 11.164 25.629a3.94 3.94 0 0 0 3.629 2.386m-26.172-89.156v-21.789c0-.414.043-.813.121-1.199.555-2.711 2.95-4.758 5.821-4.758h11.894c3.281 0 5.942 2.672 5.942 5.957v21.789zm122.84 0v-2.234l.012.015v-16.34l-.012-.011v-3.219a5.97 5.97 0 0 1 3.582-5.469l.004.004a5.9 5.9 0 0 1 2.356-.492h11.894a6 6 0 0 1 1.922.328c.211.07.414.156.617.25q.013.011.031.016a6 6 0 0 1 .582.324 5.9 5.9 0 0 1 1.864 1.855l.035.063q.152.245.281.508l.043.089q.116.251.215.52l.027.066-.004-.003c.207.609.328 1.257.328 1.937v21.793z" style="fill:#8a8a8a;fill-opacity:1;fill-rule:nonzero;stroke:none" transform="matrix(1.25 0 0 -1.25 0 601.002)"/><path d="M240.398 480.802C107.633 480.802 0 373.169 0 240.403 0 107.638 107.633.001 240.398.001c132.766 0 240.403 107.637 240.403 240.402 0 132.766-107.637 240.399-240.403 240.399m0-.399c132.551 0 240-107.453 240-240 0-132.551-107.449-240-240-240-132.546 0-240 107.449-240 240 0 132.547 107.454 240 240 240" style="fill:#000;fill-opacity:1;fill-rule:nonzero;stroke:none" transform="matrix(1.25 0 0 -1.25 0 601.002)"/><path d="M240.398 472.348c-128.023 0-231.941-103.921-231.941-231.945 0-128.027 103.918-231.945 231.941-231.945 128.028 0 231.946 103.918 231.946 231.945 0 128.024-103.918 231.945-231.946 231.945m0-12c46.309 0 89.25-14.296 124.676-38.703L59.156 115.727c-24.406 35.426-38.703 78.368-38.703 124.676 0 121.539 98.406 219.945 219.945 219.945m131.922-43.902a223 223 0 0 0 7.133-5.594L69.949 101.348a226 226 0 0 0-5.594 7.133zm13.856-11.316a228 228 0 0 0 6.629-6.102L81.773 88.001a223 223 0 0 0-6.101 6.625zm12.847-12.328a217 217 0 0 0 6.106-6.625L94.625 75.673A217 217 0 0 0 88 81.778zm11.829-13.344c1.91-2.34 3.777-4.715 5.593-7.133L108.48 64.356a226 226 0 0 0-7.136 5.594zm10.793-14.383c24.406-35.426 38.703-78.367 38.703-124.672 0-121.543-98.407-219.945-219.95-219.945-46.304 0-89.246 14.297-124.671 38.703z" style="fill:#000;fill-opacity:1;fill-rule:nonzero;stroke:none" transform="matrix(1.25 0 0 -1.25 0 601.002)"/></svg>