<svg xmlns="http://www.w3.org/2000/svg" xml:space="preserve" width="600.995" height="600.995" viewBox="0 0 600.995 600.995"><path d="M480.398 240.398c0-132.551-107.449-240-240-240s-240 107.449-240 240 107.45 240 240 240 240-107.45 240-240" style="fill:#fff;fill-opacity:1;fill-rule:nonzero;stroke:none" transform="matrix(1.25 0 0 -1.25 0 600.995)"/><path d="M240.398 480.796C107.633 480.796 0 373.163 0 240.398 0 107.632 107.633-.001 240.398-.001c132.766 0 240.399 107.633 240.399 240.399 0 132.765-107.633 240.398-240.399 240.398m0-.398c132.551 0 240-107.45 240-240s-107.449-240-240-240-240 107.449-240 240 107.45 240 240 240" style="fill:#000;fill-opacity:1;fill-rule:nonzero;stroke:none" transform="matrix(1.25 0 0 -1.25 0 600.995)"/><path d="M202.68 176.62H84.055a168.7 168.7 0 0 0-10.715 88.238h129.34zm-18.918-28.363h-15.75c0 8.57-3.871 16.676-10.543 22.062h45.211v-15.761zm-22.063 0c0-12.184-9.867-22.063-22.051-22.063s-22.062 9.879-22.062 22.063 9.879 22.062 22.062 22.062 22.051-9.878 22.051-22.062m-59.961 0h-2.836a170.5 170.5 0 0 0-12.121 22.062h35.035a28.37 28.37 0 0 1-10.531-22.062m240.293 116.601V176.62h45.164c11.375 27.934 15.094 58.395 10.715 88.238zm-12.601-22.05-54.618-3.414c-2.48-.161-4.644-1.75-5.504-4.082l-13.91-37.071a25.3 25.3 0 0 1-1.601-8.855v-34.828a6.3 6.3 0 0 1 6.301-6.301h3.156c0 15.664 12.691 28.363 28.351 28.363 15.676 0 28.379-12.699 28.379-28.363h52.36a169 169 0 0 1 12.125 22.062h-55.039zm-22.059-11.024-.004-31.523-41.844-4.918a3.14 3.14 0 0 0-3.492 2.75c-.098.504 0 1.012.18 1.48l10.555 28.18a3.2 3.2 0 0 0 2.75 2.031zm-15.766-61.465c-12.183 0-22.062-9.878-22.062-22.062s9.879-22.063 22.062-22.063 22.063 9.879 22.063 22.063-9.879 22.062-22.063 22.062m-42.398 125.137v43.692h8.746v-4.934c5.117 6.34 14.391 7.328 20.727 2.195a14 14 0 0 0 2.617-2.738c5.734 7.008 16.054 8.055 23.074 2.332a16.4 16.4 0 0 0 6.016-12.703v-27.844h-8.743v26.762c0 4.82-3.91 8.742-8.742 8.742-4.824 0-8.734-3.922-8.734-8.742v-26.762h-8.742v26.762c0 4.82-3.91 8.742-8.743 8.742-4.824 0-8.73-3.922-8.73-8.742v-26.762zm-38.242 16.93c0-4.832 3.922-8.742 8.746-8.742a8.737 8.737 0 0 1 8.742 8.742v27.305a8.735 8.735 0 0 1-8.742 8.742c-4.824 0-8.746-3.907-8.746-8.742zm-8.731 0v27.305c0 9.656 7.821 17.488 17.477 17.488 9.652 0 17.472-7.832 17.472-17.488v-27.305c0-9.656-7.82-17.485-17.472-17.485-9.656 0-17.477 7.829-17.477 17.485m-40.426-16.93 20.758 52.438h-16.39v-8.746h-8.731v17.476h34.961v-8.191l-20.758-52.977" style="fill:#000;fill-opacity:1;fill-rule:nonzero;stroke:none" transform="matrix(1.25 0 0 -1.25 0 600.995)"/><path d="M240.398 472.398c-127.746 0-232-104.254-232-232 0-127.747 104.254-232 232-232 127.747 0 232 104.253 232 232 0 127.746-104.253 232-232 232m0-64.321c92.989 0 167.68-74.691 167.68-167.679 0-92.989-74.691-167.68-167.68-167.68-92.988 0-167.679 74.691-167.679 167.68 0 92.988 74.691 167.679 167.679 167.679" style="fill:#c1121c;fill-opacity:1;fill-rule:nonzero;stroke:none" transform="matrix(1.25 0 0 -1.25 0 600.995)"/></svg>