<svg xmlns="http://www.w3.org/2000/svg" width="480" height="720"><path d="M30.856 5.772h420.005c10.816.79 23.072 11.844 23.667 24.865v655.81c.05 10.318-11.794 24.191-25.165 24.864H29.958c-9.524-.583-24.432-15.379-24.865-25.164l.599-655.21c-.2-11.597 14.286-25.3 25.164-25.166z" style="fill:#fff;fill-opacity:1;fill-rule:evenodd;stroke:#000;stroke-width:2;stroke-linecap:butt;stroke-linejoin:miter;stroke-miterlimit:4;stroke-dasharray:none;stroke-opacity:1"/><path d="M35.188 16.781c-11.761-.515-18.474 7.52-18.032 20.375V680c.047 8.667 3.728 19.07 15.688 19.281l414.437.532c11.96-.211 15.672-10.615 15.719-19.282V37.094c.442-12.856-6.27-20.89-18.031-20.375z" style="fill:#154889;fill-opacity:1;fill-rule:evenodd;stroke:none;stroke-width:1px;stroke-linecap:butt;stroke-linejoin:miter;stroke-opacity:.94117647000000004"/><path d="M133.127 101.764v82.759h57.755q21.659 0 32.311-13.03t10.653-28.35q0-23.242-16.728-34.16-10.74-7.218-27.645-7.22zm-38.914 219.75V64.964h93.147q14.967 0 28.79 3.17t28.79 14.79q11.62 8.98 19.72 24.74t8.1 36.537q0 27.469-20.513 52.296-20.514 24.828-59.956 24.828h-59.164v100.19z" style="font-size:360.61694336px;font-style:normal;font-variant:normal;font-weight:400;font-stretch:normal;text-align:center;line-height:100%;writing-mode:lr-tb;text-anchor:middle;fill:#fff;fill-opacity:1;stroke:none;stroke-width:1px;stroke-linecap:butt;stroke-linejoin:miter;stroke-opacity:1;font-family:DIN 1451 Mittelschrift"/><path d="M101.94 546.012c-4.723-49.155-3.904-6.591 19.743-81.992 17.371-51.36-3.273-36.216 107.586-47.177 98.967-6.14 77.856-18.802 104.892 31.97 33.976 65.084 28.875 29.978 32.307 73.959 2.928 48.342 19.74 34.475-129.663 48.42-148.558 10.226-129.973 21.368-134.865-25.18m26.127-49.969 16.446-48.595c3.104-8.647 1.996-7.317 10.855-8.096l142.02-11.72c7.69-.604 6.521-1.01 10.293 6.066l24.045 44.985zm-7.2 90.123 37.982-3.216c3.814 47.704 7.547 44.719-13.144 46.734-24.676 1.937-20.571 4.106-24.838-43.518m195.66-15.783 38.052-3.136c3.682 47.79 6.889 44.24-14.633 46.14-22.287 1.539-19.168 4.824-23.419-43.004" style="fill:#fff;fill-rule:evenodd;stroke:none"/><path d="M64.399 653.14v-23.448h192.506l-.074-15.157h158.792v38.753z" style="fill:#fff;fill-opacity:1;fill-rule:evenodd;stroke:none;stroke-width:1px;stroke-linecap:butt;stroke-linejoin:miter;stroke-opacity:1"/></svg>