<svg xmlns="http://www.w3.org/2000/svg" xml:space="preserve" width="847.159" height="743.623" viewBox="0 0 847.159 743.623"><path d="M338.867 594.5c-7.512 0-15.027-2.867-20.758-8.598a29.4 29.4 0 0 1-4.707-6.152l-15.246-26.157h-.07L4.984 45.554c-.054-.097-.097-.195-.152-.293a29.4 29.4 0 0 1-3.426-7.91C-2.789 21.695 6.504 5.597 22.164 1.402a29.2 29.2 0 0 1 7.738-1h618.067c16.215 0 29.355 13.141 29.355 29.356a29.2 29.2 0 0 1-3.879 14.578 1 1 0 0 0-.05.097l-304.368 528.41c-3.863 6.665-5.652 9.305-9.406 13.059-5.73 5.731-13.242 8.598-20.754 8.598" style="fill:#fff;fill-opacity:1;fill-rule:nonzero;stroke:none" transform="matrix(1.25 0 0 -1.25 0 743.623)"/><path d="M338.867 587.144c-7.125.051-14.949-3.59-18.781-10.406L10.793 40.847c-1.785-3.648-2.535-6.82-2.559-10.449 0-6.496 2.875-12.66 7.848-16.84 4.383-3.394 8.535-5.16 14.121-5.16h617.906c3.77-.035 7.547.871 10.977 3.133a21.55 21.55 0 0 1 10.41 18.426c-.184 3.894-1.144 8-2.879 10.89L357.504 576.828q-.042.07-.09.14l-.094.145a20 20 0 0 1-4.039 4.633 22 22 0 0 1-12.824 5.316c-.531.047-1.062.078-1.59.082M30.203 8.398H28.68h1.554zm308.344 472.535L574.25 72.398H102.512z" style="fill:#c1121c;fill-opacity:1;fill-rule:nonzero;stroke:none" transform="matrix(1.25 0 0 -1.25 0 743.623)"/><path d="M338.867 594.898c-7.617 0-15.23-2.906-21.039-8.715a29.8 29.8 0 0 1-4.773-6.234l-15.129-25.957h-.071L4.641 45.754c-.067-.118-.114-.219-.161-.301a29.8 29.8 0 0 1-3.46-7.996C-3.23 21.586 6.191 5.269 22.059 1.015A30 30 0 0 1 29.902 0h618.067c16.429 0 29.758 13.328 29.758 29.758a29.6 29.6 0 0 1-3.934 14.773q-.016.028-.051.098L369.379 573.043c-3.871 6.668-5.695 9.363-9.469 13.14-5.808 5.809-13.426 8.715-21.039 8.715zm0-.398c7.512 0 15.024-2.867 20.754-8.598 3.754-3.754 5.543-6.394 9.406-13.059l304.364-528.41q.027-.051.054-.097a29.2 29.2 0 0 0 3.879-14.578c0-16.215-13.14-29.356-29.355-29.356H29.902a29.2 29.2 0 0 0-7.738 1C6.504 5.597-2.789 21.695 1.406 37.351a29.3 29.3 0 0 0 3.426 7.91c.055.098.098.196.152.293l293.102 508.039h.07l15.246 26.157a29.4 29.4 0 0 0 4.707 6.152c5.731 5.731 13.243 8.598 20.758 8.598" style="fill:#000;fill-opacity:1;fill-rule:nonzero;stroke:none" transform="matrix(1.25 0 0 -1.25 0 743.623)"/><path d="m338.855 323.527 13.215-7.641v-13.367l11.59 6.676 13.199-7.609v-15.25l-24.789-14.301v-40.117l34.739 20.043v28.632l13.199 7.625 13.215-7.625v-13.382l11.574 6.707 13.215-7.641v-15.25l-11.571-6.676 11.571-6.691v-15.25l-13.215-7.641-24.789 14.332-34.719-20.074 34.719-20.055 24.789 14.317 13.215-7.625V180.41l-11.571-6.672 11.571-6.707v-15.234l-13.215-7.629-11.574 6.679V137.48l-13.215-7.613-13.199 7.613v28.617l-34.739 20.055v-40.098l24.789-14.316v-15.25l-13.199-7.641-11.59 6.676v-13.367l-13.215-7.609-13.207 7.609v13.367l-11.574-6.676-13.207 7.641v15.25l24.781 14.316v40.098l-34.718-20.055V137.48l-13.211-7.613-13.223 7.613v13.367l-11.574-6.679-13.207 7.629v15.234l11.574 6.707-11.574 6.672v15.254l13.207 7.625 24.797-14.317 34.719 20.055-34.719 20.074-24.797-14.332-13.207 7.641v15.25l11.574 6.691-11.574 6.676v15.25l13.207 7.641 11.574-6.707v13.382l13.223 7.625 13.211-7.625v-28.632l34.718-20.043v40.117l-24.781 14.301v15.25l13.207 7.609 11.574-6.676v13.367" style="fill:#000;fill-opacity:1;fill-rule:nonzero;stroke:none" transform="matrix(1.25 0 0 -1.25 0 743.623)"/></svg>