<svg xmlns="http://www.w3.org/2000/svg" xml:space="preserve" width="847.159" height="743.623" viewBox="0 0 847.159 743.623"><path d="M338.859 594.5c7.512 0 15.028-2.867 20.758-8.598a29.3 29.3 0 0 0 4.707-6.152l15.246-26.157h.071L672.742 45.554c.055-.097.098-.195.153-.293a29.4 29.4 0 0 0 3.425-7.91c4.196-15.656-5.097-31.754-20.757-35.949a29.2 29.2 0 0 0-7.739-1H29.758C13.543.402.402 13.543.402 29.758a29.2 29.2 0 0 0 3.879 14.578q.028.046.051.097l304.367 528.41c3.864 6.665 5.653 9.305 9.406 13.059a29.26 29.26 0 0 0 20.754 8.598" style="fill:#fff;fill-opacity:1;fill-rule:nonzero;stroke:none" transform="matrix(1.25 0 0 -1.25 0 743.623)"/><path d="M338.859 587.144c7.125.051 14.95-3.59 18.782-10.406L666.934 40.847c1.785-3.648 2.535-6.82 2.558-10.449 0-6.496-2.875-12.66-7.847-16.84-4.383-3.394-8.536-5.16-14.122-5.16H29.617c-3.769-.035-7.547.871-10.976 3.133A21.55 21.55 0 0 0 8.23 29.957c.184 3.894 1.145 8 2.879 10.89l309.114 535.981q.041.07.09.14l.093.145a20 20 0 0 0 4.039 4.633 22 22 0 0 0 12.825 5.316c.531.047 1.062.078 1.589.082M647.523 8.398h1.524-1.555zM339.18 480.933 103.477 72.398h471.738z" style="fill:#c1121c;fill-opacity:1;fill-rule:nonzero;stroke:none" transform="matrix(1.25 0 0 -1.25 0 743.623)"/><path d="M338.859 594.898c7.618 0 15.231-2.906 21.039-8.715a29.7 29.7 0 0 0 4.774-6.234l15.129-25.957h.07L673.086 45.754c.066-.118.113-.219.16-.301a29.8 29.8 0 0 0 3.461-7.996c4.25-15.871-5.172-32.188-21.039-36.442A30 30 0 0 0 647.824 0H29.758C13.328 0 0 13.328 0 29.758a29.6 29.6 0 0 0 3.934 14.773q.016.028.05.098l304.364 528.414c3.871 6.668 5.695 9.363 9.468 13.14 5.809 5.809 13.426 8.715 21.039 8.715zm0-.398a29.26 29.26 0 0 1-20.754-8.598c-3.753-3.754-5.542-6.394-9.406-13.059L4.336 44.433c-.02-.035-.035-.066-.055-.097A29.2 29.2 0 0 1 .402 29.758C.402 13.543 13.543.402 29.758.402h618.066a29.2 29.2 0 0 1 7.739 1c15.66 4.195 24.953 20.293 20.757 35.949a29.2 29.2 0 0 1-3.425 7.91c-.055.098-.098.196-.153.293L379.641 553.593h-.071l-15.246 26.157a29.3 29.3 0 0 1-4.707 6.152c-5.73 5.731-13.242 8.598-20.758 8.598" style="fill:#000;fill-opacity:1;fill-rule:nonzero;stroke:none" transform="matrix(1.25 0 0 -1.25 0 743.623)"/><path d="m351.398 316.058 68.469-18.656.09-.34v2.606h10.981V85l-10.981-.086v199.894l-16.508-59.726-171.301-71.188c-1.375-.562-2.175-1.691-4.3-1.5-17.719 10.227-27.426 26.555-27.856 46.449 14.379 12.29 100.946 78.141 151.406 117.215m12.454-10.59c17.781-12.988 33.238-32.335 38.609-65.16l12.566 52.766zm-43.762-23.152-29.461-22.109c23.031-12.688 33.664-35.477 35.121-60.965l32.926 13.867c-.5 21.824-6.457 46.695-38.586 69.207m-62.016-46.504-26.519-19.902c14.574-12.313 21.351-28.387 26.718-45.117l29.973 12.625c-3.125 19.398-10.473 37.617-30.172 52.394m-51.855-38.918-1.133-.851-.25.14c1.937-16.105 11.191-27.742 22.16-38.55l.906.394c-3.066 14.469-10.562 27.32-21.683 38.867" style="fill:#000;fill-opacity:1;fill-rule:evenodd;stroke:none" transform="matrix(1.25 0 0 -1.25 0 743.623)"/></svg>