<svg xmlns="http://www.w3.org/2000/svg" xml:space="preserve" width="421.025" height="630.724" viewBox="0 0 421.025 630.724"><path d="M23.035.4H314.23c22.301 0 22.192 18.187 22.192 18.187v467.641s.144 17.949-19.176 17.949H20.207S.441 504.505.398 484.435V20.384C.398.353 23.035.4 23.035.4" style="fill:#fff;fill-opacity:1;fill-rule:evenodd;stroke:none" transform="matrix(1.25 0 0 -1.25 0 630.724)"/><path d="M19.648 9.306H317.27s10.828.027 10.828 10.953v464.926s-.008 10.73-11.981 10.73H20.805s-11.895 0-11.895-10.726V19.575C8.949 9.197 19.648 9.306 19.648 9.306" style="fill:#154889;fill-opacity:1;fill-rule:evenodd;stroke:none" transform="matrix(1.25 0 0 -1.25 0 630.724)"/><path d="m39.133 148.907 67.355.032-.097-13.246-25.711-.032-.032-81.566h-15.07v81.613l-26.41-.066zm108.246.196-12.203-.074L100.5 53.974l16.027.094 7.422 20.843 34.848.075 7.851-21.746h15.84zm-5.848-21.313 12.824-39.441-26.32-.074zm49.649 21.297 27.824-46.16-29.551-48.91h17.902l19.727 34.676 19.746-34.676h17.688l-29.18 48.695 27.887 46.16h-18.121l-17.903-32.14-18.332 32.14zm86.129-94.961-.028 94.797h15.004l-.023-94.824z" style="fill:#fff;fill-opacity:1;fill-rule:evenodd;stroke:none" transform="matrix(1.25 0 0 -1.25 0 630.724)"/><path d="M20.207 504.579c-.008 0-5.023.086-10.062-2.386C5.098 499.716.02 494.603 0 484.439V20.384C0 10.22 5.805 5.048 11.555 2.513 17.305-.018 23.035.001 23.035.001H314.23c11.258 0 16.977 4.637 19.801 9.285 2.821 4.649 2.789 9.297 2.789 9.297v467.645c0 .004.039 4.578-2.39 9.164s-7.399 9.187-17.184 9.187zm0-.402h297.039c19.32 0 19.176-17.949 19.176-17.949V18.583S336.531.4 314.23.4H23.035S.398.353.398 20.38v464.055c.043 20.07 19.809 19.742 19.809 19.742" style="fill:#000;fill-opacity:1;fill-rule:evenodd;stroke:none" transform="matrix(1.25 0 0 -1.25 0 630.724)"/><path d="M168.504 196.771c-69.383 0-126 56.621-126 126 0 69.383 56.617 126 126 126 69.379 0 126-56.617 126-126 0-69.379-56.621-126-126-126m0 34.929c20.523 0 39.406 6.7 54.594 18.043l-54.594 54.594-54.594-54.59c15.188-11.343 34.07-18.047 54.594-18.047m73.027 36.477c11.344 15.188 18.043 34.07 18.043 54.594 0 20.523-6.699 39.406-18.043 54.594l-54.593-54.594zm-146.054.004 54.593 54.59-54.593 54.594c-11.344-15.188-18.043-34.071-18.043-54.594s6.699-39.406 18.043-54.59m73.027 73.023 54.594 54.594c-15.188 11.344-34.071 18.043-54.594 18.043s-39.406-6.699-54.594-18.043z" style="fill:#c1121c;fill-opacity:1;fill-rule:nonzero;stroke:none" transform="matrix(1.25 0 0 -1.25 0 630.724)"/><path d="M50.887 205.4v.011h-.016z" style="fill:#000;fill-opacity:1;fill-rule:nonzero;stroke:none" transform="matrix(1.25 0 0 -1.25 0 630.724)"/><path d="M50.871 205.411h.016v-.012h-.016z" style="fill:#000;fill-opacity:1;fill-rule:nonzero;stroke:none" transform="matrix(1.25 0 0 -1.25 0 630.724)"/><path d="M50.871 205.411v-.011l.016.011zm.016 0-.016-.011v.011z" style="fill:#000;fill-opacity:1;fill-rule:nonzero;stroke:none" transform="matrix(1.25 0 0 -1.25 0 630.724)"/><path d="M50.898 205.411h-.027.016v-.011z" style="fill:#000;fill-opacity:1;fill-rule:nonzero;stroke:none" transform="matrix(1.25 0 0 -1.25 0 630.724)"/><path d="M50.871 205.411v-.011zl.016-.011z" style="fill:#000;fill-opacity:1;fill-rule:nonzero;stroke:none" transform="matrix(1.25 0 0 -1.25 0 630.724)"/><path d="M50.871 205.411h.016v-.012h-.016z" style="fill:#000;fill-opacity:1;fill-rule:nonzero;stroke:none" transform="matrix(1.25 0 0 -1.25 0 630.724)"/><path d="M50.898 205.4v.023h-.027z" style="fill:#000;fill-opacity:1;fill-rule:nonzero;stroke:none" transform="matrix(1.25 0 0 -1.25 0 630.724)"/><path d="M50.871 205.423h.027v-.023h-.027z" style="fill:#000;fill-opacity:1;fill-rule:nonzero;stroke:none" transform="matrix(1.25 0 0 -1.25 0 630.724)"/><path d="M50.871 205.423v-.023l.027.023zm.027 0-.027-.023v.023z" style="fill:#000;fill-opacity:1;fill-rule:nonzero;stroke:none" transform="matrix(1.25 0 0 -1.25 0 630.724)"/><path d="M50.898 205.423h-.027.016v-.023z" style="fill:#000;fill-opacity:1;fill-rule:nonzero;stroke:none" transform="matrix(1.25 0 0 -1.25 0 630.724)"/><path d="M50.871 205.423v-.023zl.027-.023z" style="fill:#000;fill-opacity:1;fill-rule:nonzero;stroke:none" transform="matrix(1.25 0 0 -1.25 0 630.724)"/><path d="M50.871 205.423h.027v-.023h-.027z" style="fill:#000;fill-opacity:1;fill-rule:nonzero;stroke:none" transform="matrix(1.25 0 0 -1.25 0 630.724)"/><path d="M50.898 205.4v.023h-.027z" style="fill:#000;fill-opacity:1;fill-rule:nonzero;stroke:none" transform="matrix(1.25 0 0 -1.25 0 630.724)"/><path d="M50.871 205.423h.027v-.023h-.027z" style="fill:#000;fill-opacity:1;fill-rule:nonzero;stroke:none" transform="matrix(1.25 0 0 -1.25 0 630.724)"/><path d="M50.871 205.423v-.023l.027.023zm.027 0-.027-.023v.023z" style="fill:#000;fill-opacity:1;fill-rule:nonzero;stroke:none" transform="matrix(1.25 0 0 -1.25 0 630.724)"/><path d="M50.898 205.423h-.027.016v-.023z" style="fill:#000;fill-opacity:1;fill-rule:nonzero;stroke:none" transform="matrix(1.25 0 0 -1.25 0 630.724)"/><path d="M50.871 205.423v-.023zl.027-.023z" style="fill:#000;fill-opacity:1;fill-rule:nonzero;stroke:none" transform="matrix(1.25 0 0 -1.25 0 630.724)"/><path d="M50.871 205.423h.027v-.023h-.027z" style="fill:#000;fill-opacity:1;fill-rule:nonzero;stroke:none" transform="matrix(1.25 0 0 -1.25 0 630.724)"/><path d="M50.898 205.4v.023h-.027z" style="fill:#000;fill-opacity:1;fill-rule:nonzero;stroke:none" transform="matrix(1.25 0 0 -1.25 0 630.724)"/><path d="M50.871 205.423h.027v-.023h-.027z" style="fill:#000;fill-opacity:1;fill-rule:nonzero;stroke:none" transform="matrix(1.25 0 0 -1.25 0 630.724)"/><path d="M50.871 205.423v-.023l.027.023zm.027 0-.027-.023v.023z" style="fill:#000;fill-opacity:1;fill-rule:nonzero;stroke:none" transform="matrix(1.25 0 0 -1.25 0 630.724)"/><path d="M50.898 205.423h-.027.016v-.023z" style="fill:#000;fill-opacity:1;fill-rule:nonzero;stroke:none" transform="matrix(1.25 0 0 -1.25 0 630.724)"/><path d="M50.871 205.423v-.023zl.027-.023z" style="fill:#000;fill-opacity:1;fill-rule:nonzero;stroke:none" transform="matrix(1.25 0 0 -1.25 0 630.724)"/><path d="M50.871 205.423h.027v-.023h-.027z" style="fill:#000;fill-opacity:1;fill-rule:nonzero;stroke:none" transform="matrix(1.25 0 0 -1.25 0 630.724)"/><path d="m134.215 257.493 19.582-19.586h10.883l-15.231 15.231h53.344v8.707h-53.344l15.231 15.234h-10.883" style="fill:#fff;fill-opacity:1;fill-rule:nonzero;stroke:none" transform="matrix(1.25 0 0 -1.25 0 630.724)"/></svg>